<svg width="60" height="33" viewBox="0 0 60 33" fill="none" xmlns="http://www.w3.org/2000/svg">
<path d="M1 1V1H41.5806L41.5806 26.1765L21.2903 26.1765H17.0675C16.4654 25.0519 15.5294 24.1394 14.3865 23.5663C12.641 22.691 10.5848 22.691 8.83933 23.5663C7.69639 24.1394 6.76044 25.0519 6.15828 26.1765H0.999999L1 1Z" stroke="white" stroke-width="2"/>
<path d="M15.4839 29.1177C15.4839 31.2619 13.7508 33.0001 11.6129 33.0001C9.47503 33.0001 7.74194 31.2619 7.74194 29.1177C7.74194 26.9735 9.47503 25.2354 11.6129 25.2354C13.7508 25.2354 15.4839 26.9735 15.4839 29.1177ZM9.67743 29.1177C9.67743 30.1898 10.544 31.0589 11.6129 31.0589C12.6818 31.0589 13.5484 30.1898 13.5484 29.1177C13.5484 28.0456 12.6818 27.1765 11.6129 27.1765C10.544 27.1765 9.67743 28.0456 9.67743 29.1177Z" fill="white"/>
<path d="M56.129 29.1177C56.129 31.2619 54.3959 33.0001 52.2581 33.0001C50.1202 33.0001 48.3871 31.2619 48.3871 29.1177C48.3871 26.9735 50.1202 25.2354 52.2581 25.2354C54.3959 25.2354 56.129 26.9735 56.129 29.1177ZM50.3226 29.1177C50.3226 30.1898 51.1891 31.0589 52.2581 31.0589C53.327 31.0589 54.1935 30.1898 54.1935 29.1177C54.1935 28.0456 53.327 27.1765 52.2581 27.1765C51.1891 27.1765 50.3226 28.0456 50.3226 29.1177Z" fill="white"/>
<path d="M45.5161 4.88232L51.722 4.88232L55.2962 10.2594L59 15.8314V26.1764H57.7127C57.1105 25.0518 56.1746 24.1394 55.0316 23.5663C53.2862 22.691 51.2299 22.691 49.4845 23.5663C48.3415 24.1394 47.4056 25.0518 46.8034 26.1764H45.5161L45.5161 4.88232Z" stroke="white" stroke-width="2"/>
<path d="M48 9C48 8.44772 48.4477 8 49 8H50.4458C50.7905 8 51.111 8.17762 51.2938 8.47L55.0438 14.47C55.46 15.136 54.9812 16 54.1958 16H49C48.4477 16 48 15.5523 48 15V12V9Z" fill="white"/>
<path d="M15.8446 13.1908C14.2736 11.6197 14.2736 9.07264 15.8446 7.50163C17.4156 5.93062 19.9627 5.93062 21.5337 7.50163L28.0355 14.0035L22.3464 19.6926L15.8446 13.1908Z" fill="white"/>
<path d="M23.1591 7.50154C24.7301 5.93054 27.2772 5.93054 28.8482 7.50154C30.4192 9.07255 30.4192 11.6197 28.8482 13.1907L22.3464 19.6925L16.6572 14.0034L23.1591 7.50154Z" fill="white"/>
</svg>
