<svg width="67" height="44" viewBox="0 0 67 44" fill="none" xmlns="http://www.w3.org/2000/svg">
<rect x="12" width="55" height="33" rx="4" fill="white"/>
<rect x="12" y="7" width="55" height="5" fill="#333333"/>
<circle cx="51.5" cy="25.5" r="2.5" fill="#333333"/>
<circle cx="55.5" cy="25.5" r="2.5" fill="#333333"/>
<circle cx="13.5" cy="30.5" r="13.5" fill="#7CD708"/>
<path d="M4.70711 31.7279C4.31658 31.3373 4.31658 30.7042 4.70711 30.3136C5.09763 29.9231 5.7308 29.9231 6.12132 30.3136L12.4853 36.6776C11.7042 37.4587 10.4379 37.4587 9.65685 36.6776L4.70711 31.7279Z" fill="white"/>
<path d="M12.4853 36.6775L11.0711 35.2633L20.9706 25.3638C21.3611 24.9733 21.9943 24.9733 22.3848 25.3638C22.7753 25.7543 22.7753 26.3875 22.3848 26.778L12.4853 36.6775Z" fill="white"/>
</svg>
