<svg width="40" height="56" viewBox="0 0 40 56" fill="none" xmlns="http://www.w3.org/2000/svg">
<path d="M0.5 2C0.5 1.17157 1.17157 0.5 2 0.5H17.9462C19.1305 0.5 20.267 0.966826 21.1093 1.79925L26.3152 6.94387L31.4964 12.0641C32.3519 12.9095 32.8333 14.0622 32.8333 15.2649V47.4118C32.8333 48.2402 32.1618 48.9118 31.3333 48.9118H2C1.17157 48.9118 0.5 48.2402 0.5 47.4118V2Z" fill="white" stroke="#333333"/>
<rect x="13.3333" y="36.2354" width="6.66667" height="1.64706" fill="#666666"/>
<ellipse cx="29.1667" cy="45.294" rx="10.8333" ry="10.7059" fill="#333333"/>
<ellipse cx="29.1667" cy="45.2942" rx="9.16667" ry="9.05882" fill="white"/>
<rect x="28.3333" y="39.5293" width="1.66667" height="11.5294" rx="0.833334" fill="#333333"/>
<rect x="23.3333" y="46.1177" width="1.64706" height="11.6667" rx="0.82353" transform="rotate(-90 23.3333 46.1177)" fill="#333333"/>
<ellipse cx="16.6667" cy="16.4706" rx="8.33333" ry="8.23529" fill="black"/>
<ellipse cx="12.5" cy="14" rx="0.833334" ry="0.82353" fill="white"/>
<ellipse cx="19.1667" cy="10.7059" rx="0.833333" ry="0.82353" fill="white"/>
<ellipse cx="19.1667" cy="15.647" rx="0.833333" ry="0.823529" fill="white"/>
<ellipse cx="20.8333" cy="20.5882" rx="0.833334" ry="0.82353" fill="white"/>
<ellipse cx="12.5" cy="18.9412" rx="0.833334" ry="0.823529" fill="white"/>
<rect x="8.33333" y="29.647" width="16.6667" height="1.64706" fill="#666666"/>
</svg>
