<svg width="68" height="47" viewBox="0 0 68 47" fill="none" xmlns="http://www.w3.org/2000/svg">
<path d="M8.26764 34.5874L26.9816 2.58777C27.2604 2.11103 27.8754 1.94626 28.3552 2.21974L29.6438 2.95421C30.1236 3.2277 30.2865 3.83588 30.0077 4.31263L11.2938 36.3123L8.26764 34.5874Z" fill="white"/>
<path d="M10.6543 33.9561C13.1613 35.385 13.8247 38.8841 12.136 41.7716C10.4474 44.659 7.04621 45.8414 4.53925 44.4125C2.03229 42.9836 1.3689 39.4845 3.05753 36.597C4.74616 33.7096 8.14735 32.5272 10.6543 33.9561ZM5.76227 42.3212C7.26644 43.1786 9.30716 42.4691 10.3203 40.7367C11.3335 39.0042 10.9355 36.9047 9.4313 36.0474C7.92712 35.19 5.88641 35.8995 4.87323 37.6319C3.86005 39.3644 4.25809 41.4639 5.76227 42.3212Z" fill="white"/>
<path d="M25.2711 34.5874L6.55719 2.58777C6.27838 2.11103 5.66339 1.94626 5.18358 2.21974L3.89498 2.95421C3.41516 3.2277 3.25221 3.83588 3.53102 4.31263L22.2449 36.3123L25.2711 34.5874Z" fill="white"/>
<path d="M22.8844 33.9561C20.3775 35.385 19.7141 38.8841 21.4027 41.7716C23.0913 44.659 26.4925 45.8414 28.9995 44.4125C31.5065 42.9836 32.1699 39.4845 30.4812 36.597C28.7926 33.7096 25.3914 32.5272 22.8844 33.9561ZM27.7765 42.3212C26.2723 43.1786 24.2316 42.4691 23.2184 40.7367C22.2052 39.0042 22.6033 36.9047 24.1075 36.0474C25.6116 35.19 27.6524 35.8995 28.6655 37.6319C29.6787 39.3644 29.2807 41.4639 27.7765 42.3212Z" fill="white"/>
<ellipse cx="16.598" cy="23.2858" rx="0.873579" ry="0.862427" fill="#333333"/>
<rect width="31.2488" height="3.47208" rx="1" transform="matrix(0.711635 -0.702549 0.711635 0.702549 35.8788 35.666)" fill="white"/>
<path d="M51.4156 9.5358C51.0226 9.14779 51.0226 8.51871 51.4156 8.1307L52.6971 6.8656C52.986 6.58032 53.4211 6.49588 53.7979 6.6519L55.3025 7.2748L57.2477 8.08011C57.3682 8.13 57.4777 8.20259 57.5701 8.29381L67.2883 17.8879C67.6814 18.2759 67.6814 18.905 67.2883 19.293L65.0053 21.5469C64.6123 21.9349 63.9751 21.9349 63.5821 21.5469L51.4156 9.5358Z" fill="white"/>
</svg>
